HIERARCHY
ROOT root
{
	OFFSET 0.000000 0.000000 0.000000
	CHANNELS 6 Xposition Yposition Zposition Zrotation Yrotation Xrotation
	JOINT lhip
	{
		OFFSET 0.058581 -0.082280 -0.017664
		CHANNELS 3 Zrotation Yrotation Xrotation
		JOINT lknee
		{
			OFFSET 0.043451 -0.386469 0.008037
			CHANNELS 3 Zrotation Yrotation Xrotation
			JOINT lankle
			{
				OFFSET -0.014790 -0.426874 -0.037428
				CHANNELS 3 Zrotation Yrotation Xrotation
				JOINT ltoe
				{
					OFFSET 0.041054 -0.060286 0.122042
					CHANNELS 3 Zrotation Yrotation Xrotation
					End Site
					{
						OFFSET 0.000000 0.000000 0.000000
					}
				}
			}
		}
	}
	JOINT rhip
	{
		OFFSET -0.060310 -0.090513 -0.013543
		CHANNELS 3 Zrotation Yrotation Xrotation
		JOINT rknee
		{
			OFFSET -0.043257 -0.383688 -0.004843
			CHANNELS 3 Zrotation Yrotation Xrotation
			JOINT rankle
			{
				OFFSET 0.019056 -0.420046 -0.034562
				CHANNELS 3 Zrotation Yrotation Xrotation
				JOINT rtoe
				{
					OFFSET -0.034840 -0.062106 0.130323
					CHANNELS 3 Zrotation Yrotation Xrotation
					End Site
					{
						OFFSET 0.000000 0.000000 0.000000
					}
				}
			}
		}
	}
	JOINT lowerback
	{
		OFFSET 0.004439 0.124404 -0.038385
		CHANNELS 3 Zrotation Yrotation Xrotation
		JOINT upperback
		{
			OFFSET 0.004488 0.137956 0.026820
			CHANNELS 3 Zrotation Yrotation Xrotation
			JOINT chest
			{
				OFFSET -0.002265 0.056032 0.002855
				CHANNELS 3 Zrotation Yrotation Xrotation
				JOINT lowerneck
				{
					OFFSET -0.013390 0.211636 -0.033468
					CHANNELS 3 Zrotation Yrotation Xrotation
					JOINT upperneck
					{
						OFFSET 0.010113 0.088937 0.050410
						CHANNELS 3 Zrotation Yrotation Xrotation
						End Site
						{
							OFFSET 0.000000 0.000000 0.000000
						}
					}
				}
				JOINT lclavicle
				{
					OFFSET 0.071702 0.114000 -0.018898
					CHANNELS 3 Zrotation Yrotation Xrotation
					JOINT lshoulder
					{
						OFFSET 0.122921 0.045205 -0.019046
						CHANNELS 3 Zrotation Yrotation Xrotation
						JOINT lelbow
						{
							OFFSET 0.255332 -0.015649 -0.022946
							CHANNELS 3 Zrotation Yrotation Xrotation
							JOINT lwrist
							{
								OFFSET 0.265709 0.012698 -0.007375
								CHANNELS 3 Zrotation Yrotation Xrotation
								End Site
								{
									OFFSET 0.000000 0.000000 0.000000
								}
							}
						}
					}
				}
				JOINT rclavicle
				{
					OFFSET -0.082954 0.112472 -0.023707
					CHANNELS 3 Zrotation Yrotation Xrotation
					JOINT rshoulder
					{
						OFFSET -0.113228 0.046853 -0.008472
						CHANNELS 3 Zrotation Yrotation Xrotation
						JOINT relbow
						{
							OFFSET -0.260127 -0.014369 -0.031269
							CHANNELS 3 Zrotation Yrotation Xrotation
							JOINT rwrist
							{
								OFFSET -0.269108 0.006794 -0.006027
								CHANNELS 3 Zrotation Yrotation Xrotation
								End Site
								{
									OFFSET 0.000000 0.000000 0.000000
								}
							}
						}
					}
				}
			}
		}
	}
}
MOTION
Frames: 13
Frame Time: 0.033333
-1.410935 2.988041 0.988976 20.469001 1.212921 84.149988 4.160260 5.840494 12.419656 -4.333671 2.360774 -5.089361 0.580111 14.448202 -13.198482 0.000000 -0.000000 0.000000 -1.124681 -3.726074 3.285229 3.075704 -5.318891 11.040608 2.662072 -8.381226 -11.909532 0.000000 -0.000000 0.000000 2.054044 -2.118425 -0.546574 2.003886 -3.053419 10.163675 0.176375 -2.783670 0.535607 1.669797 4.201949 -0.471103 -2.341078 4.137247 21.550795 -28.097099 1.728027 5.013275 -60.882512 -7.722257 8.769199 10.073753 -23.149235 -1.724120 -2.252415 -8.394764 -7.267476 26.958209 2.222533 4.612063 53.079426 5.960425 12.514781 -10.949011 22.970076 -6.579448 3.777783 7.238827 -8.871536 
-1.411351 2.988369 0.988987 20.267217 1.211609 84.238923 4.146466 5.874449 12.325443 -4.325198 2.420412 -5.115795 0.576842 14.563551 -13.181867 0.000000 -0.000000 0.000000 -1.095274 -3.542226 3.171432 3.154575 -5.131260 10.964717 2.892399 -8.572069 -11.899467 0.000000 -0.000000 0.000000 2.040539 -2.151894 -0.569764 1.974279 -2.979645 10.049125 0.203650 -2.723563 0.626635 1.697234 4.181932 -0.710289 -2.427309 4.214804 21.698734 -27.980407 1.850662 4.740405 -61.102913 -7.752126 8.907366 9.896684 -22.073875 -1.736939 -2.569485 -8.367686 -6.810323 26.924023 2.113449 4.472480 53.144989 6.072715 12.518413 -10.890834 22.704739 -6.812039 3.849079 7.294522 -8.501551 
-1.411700 2.988550 0.988988 20.153440 1.242394 84.293738 4.183062 5.914047 12.266147 -4.318963 2.460490 -5.120543 0.587595 14.592677 -13.169620 0.000000 -0.000000 0.000000 -1.034366 -3.529483 3.123221 3.174413 -5.007727 10.876084 2.893174 -8.596408 -11.833409 0.000000 -0.000000 0.000000 2.030925 -2.133810 -0.612782 2.008299 -3.058705 10.079430 0.203486 -2.732133 0.581335 1.700339 4.158821 -0.758370 -2.433713 4.301110 21.608975 -27.990702 1.907490 4.660342 -61.225018 -7.645742 8.984887 9.813313 -21.430287 -1.673761 -2.665874 -8.151099 -6.506611 26.908118 2.091626 4.415712 53.157317 6.134971 12.524852 -10.819067 22.551916 -6.875536 3.844198 7.271100 -8.396599 
-1.412140 2.988916 0.989001 19.926667 1.260140 84.303928 4.195354 5.954600 12.248461 -4.310546 2.565997 -5.131870 0.594624 14.672088 -13.163877 0.000000 -0.000000 0.000000 -0.981226 -3.435982 2.997548 3.170208 -4.930097 10.965543 2.904268 -8.573075 -11.831097 0.000000 -0.000000 0.000000 2.012271 -2.178579 -0.502008 1.990098 -3.058950 9.988616 0.227720 -2.786794 0.613587 1.680833 4.259947 -0.936160 -2.452334 4.456940 21.578354 -28.063964 1.921623 4.861907 -61.219922 -7.448770 8.977560 9.763754 -21.554207 -1.472518 -2.567646 -8.187298 -6.573899 26.935791 2.163402 4.428586 53.145151 6.197870 12.540555 -10.783950 22.539453 -6.805706 3.749695 7.291980 -8.485706 
-1.412374 2.989107 0.989016 19.792205 1.267106 84.307265 4.199852 5.987403 12.243436 -4.303877 2.617930 -5.137676 0.605881 14.721990 -13.162953 0.000000 -0.000000 0.000000 -0.951703 -3.371674 2.933635 3.160364 -4.888359 11.013550 2.909741 -8.554793 -11.827394 0.000000 -0.000000 0.000000 1.986220 -2.192148 -0.450033 1.996926 -3.046568 9.931864 0.238284 -2.780251 0.598988 1.687560 4.240026 -0.929819 -2.454061 4.482733 21.578460 -28.066617 1.948858 4.877304 -61.220425 -7.319182 9.076923 9.630698 -21.691385 -1.275156 -2.529535 -8.230110 -6.544360 26.936500 2.146993 4.420058 53.164551 6.176582 12.563846 -10.781318 22.571684 -6.791554 3.704927 7.315695 -8.536644 
-1.412624 2.989324 0.989041 19.640476 1.275655 84.316807 4.199428 6.022210 12.220564 -4.285312 2.680893 -5.120290 0.623666 14.773913 -13.164977 0.000000 -0.000000 0.000000 -0.921064 -3.317658 2.859547 3.150055 -4.824760 11.063947 2.924621 -8.524060 -11.815416 0.000000 -0.000000 0.000000 1.936893 -2.181477 -0.458452 2.032616 -3.039019 9.926796 0.242294 -2.734442 0.552050 1.702865 4.200827 -0.836143 -2.469921 4.484255 21.542906 -28.015184 2.015122 4.711466 -61.280088 -7.182654 9.291578 9.408791 -21.806968 -1.063298 -2.519307 -8.259901 -6.414985 26.944073 2.040216 4.354269 53.181339 6.128886 12.589203 -10.769249 22.629014 -6.830622 3.678867 7.349936 -8.487877 
-1.412807 2.989501 0.989028 19.510823 1.287957 84.294745 4.209071 6.035397 12.241058 -4.278556 2.749282 -5.116646 0.632976 14.811104 -13.174274 0.000000 -0.000000 0.000000 -0.905904 -3.282951 2.835803 3.159479 -4.784941 11.100662 2.941904 -8.475528 -11.818374 0.000000 -0.000000 0.000000 1.899979 -2.183832 -0.475000 2.053502 -3.030833 9.943796 0.252299 -2.718420 0.551102 1.723216 4.169349 -0.771783 -2.482192 4.450061 21.583583 -28.023844 2.054651 4.673462 -61.338887 -7.164819 9.344485 9.360921 -22.065529 -1.031774 -2.485756 -8.311700 -6.420652 26.977301 1.999366 4.353580 53.165233 6.139510 12.583121 -10.796246 22.661705 -6.845267 3.610719 7.391186 -8.376385 
-1.412972 2.989636 0.989006 19.367664 1.297845 84.248310 4.215424 6.057839 12.312582 -4.268356 2.822440 -5.146175 0.652354 14.849400 -13.183132 0.000000 -0.000000 0.000000 -0.892948 -3.247816 2.825470 3.159521 -4.743973 11.170815 2.949105 -8.412199 -11.831016 0.000000 -0.000000 0.000000 1.883249 -2.186471 -0.446864 2.049857 -3.000263 9.926774 0.260810 -2.715225 0.552450 1.722077 4.149424 -0.717895 -2.472517 4.457818 21.626042 -28.059475 2.076250 4.726277 -61.376959 -7.215136 9.315696 9.417481 -22.401614 -1.077068 -2.392400 -8.303820 -6.524054 26.998655 1.998047 4.392016 53.179033 6.146360 12.578159 -10.820948 22.662891 -6.846091 3.543917 7.402289 -8.353927 
-1.413170 2.989729 0.989027 19.249777 1.308401 84.194427 4.222108 6.080264 12.397472 -4.258581 2.879404 -5.175993 0.679942 14.884964 -13.188428 0.000000 -0.000000 0.000000 -0.865527 -3.219561 2.817354 3.139528 -4.713726 11.263315 2.931720 -8.362476 -11.868589 0.000000 -0.000000 0.000000 1.860206 -2.177248 -0.412522 2.042368 -2.958252 9.905561 0.269352 -2.686569 0.544723 1.715185 4.161781 -0.638838 -2.438874 4.509330 21.608298 -28.059278 2.065597 4.718235 -61.406872 -7.297880 9.330921 9.455149 -22.750502 -1.110140 -2.323540 -8.301526 -6.644665 26.996921 1.985398 4.426566 53.248368 6.104181 12.603518 -10.857831 22.685552 -6.826352 3.544372 7.374616 -8.429809 
-1.413356 2.989827 0.989021 19.157639 1.318021 84.125449 4.234787 6.069530 12.460539 -4.248735 2.924391 -5.150542 0.700913 14.928106 -13.207547 0.000000 -0.000000 0.000000 -0.841617 -3.200775 2.813993 3.111228 -4.725843 11.387949 2.926162 -8.302874 -11.914859 0.000000 -0.000000 0.000000 1.820459 -2.168979 -0.358585 2.034530 -2.906667 9.862888 0.288043 -2.657749 0.546653 1.722197 4.157415 -0.554892 -2.410339 4.494757 21.617611 -28.045069 2.045684 4.692729 -61.359805 -7.455910 9.359117 9.422533 -23.356201 -1.153234 -2.134863 -8.544183 -6.804898 26.982263 1.977485 4.469434 53.314757 6.016413 12.646681 -10.884889 22.705020 -6.765242 3.559380 7.397960 -8.531479 
-1.413504 2.989889 0.989007 19.143398 1.320136 84.065963 4.250596 6.057276 12.500941 -4.249507 2.944474 -5.114302 0.714830 14.930131 -13.228557 0.000000 -0.000000 0.000000 -0.827568 -3.198312 2.828525 3.092096 -4.738003 11.468441 2.927407 -8.287588 -11.947163 0.000000 -0.000000 0.000000 1.761702 -2.166425 -0.320589 2.032809 -2.901690 9.836627 0.321505 -2.673288 0.536155 1.713293 4.131098 -0.469970 -2.374079 4.478745 21.645458 -28.009220 1.948065 4.744643 -61.337301 -7.565313 9.373511 9.474072 -23.764145 -1.154343 -2.050708 -8.587131 -6.879058 26.962937 2.014274 4.532475 53.358424 5.967189 12.642654 -10.903206 22.681043 -6.733165 3.604476 7.371669 -8.605574 
-1.413635 2.989852 0.988995 19.157523 1.317301 84.019995 4.258672 6.039604 12.539782 -4.246167 2.957016 -5.100165 0.721320 14.923411 -13.231835 0.000000 -0.000000 0.000000 -0.815602 -3.194834 2.840695 3.071832 -4.752867 11.542220 2.932008 -8.284251 -11.976347 0.000000 -0.000000 0.000000 1.697395 -2.164522 -0.331649 2.028122 -2.906174 9.838030 0.347338 -2.695437 0.529322 1.697627 4.125907 -0.395013 -2.350763 4.461431 21.662850 -27.961201 1.838627 4.783268 -61.277806 -7.665486 9.395054 9.515435 -24.150905 -1.173975 -1.964039 -8.641125 -6.932411 26.959034 2.067077 4.586194 53.391662 5.925277 12.633680 -10.922777 22.618370 -6.734421 3.589727 7.375073 -8.655655 
-1.413774 2.989788 0.988989 19.170516 1.319063 83.987582 4.271341 6.030025 12.576823 -4.237754 2.947610 -5.104387 0.719565 14.926270 -13.231255 0.000000 -0.000000 0.000000 -0.794999 -3.194954 2.827032 3.047019 -4.773496 11.637259 2.933812 -8.280215 -12.011117 0.000000 -0.000000 0.000000 1.638632 -2.161664 -0.364486 2.028981 -2.903777 9.842614 0.361205 -2.697316 0.519628 1.684641 4.104255 -0.313812 -2.348059 4.425053 21.667808 -27.902357 1.766897 4.754865 -61.190791 -7.775983 9.449913 9.508546 -24.467597 -1.153578 -1.904585 -8.672871 -6.951774 26.960094 2.082007 4.600146 53.417238 5.868408 12.641261 -10.941186 22.578791 -6.726151 3.595453 7.360407 -8.684389 
